{
  "accessors": [
    {
      "bufferView": 2,
      "componentType": 5126,
      "count": 860,
      "max": [
        0.5534420013427734,
        0.22878184914588928,
        1.1589200496673584
      ],
      "min": [
        -0.5534420013427734,
        -0.1810680478811264,
        0.40440088510513306
      ],
      "type": "VEC3"
    },
    {
      "bufferView": 2,
      "byteOffset": 10320,
      "componentType": 5126,
      "count": 860,
      "max": [
        0.9988909363746643,
        0.9986116886138916,
        0.9992315173149109
      ],
      "min": [
        -0.9988909363746643,
        -0.9998147487640381,
        -0.9994654655456543
      ],
      "type": "VEC3"
    },
    {
      "bufferView": 1,
      "componentType": 5126,
      "count": 860,
      "max": [
        0.9949700236320496,
        0.9954900145530701
      ],
      "min": [
        0.002829967997968197,
        -0.0008900170214474201
      ],
      "type": "VEC2"
    },
    {
      "bufferView": 0,
      "componentType": 5125,
      "count": 3876,
      "type": "SCALAR"
    },
    {
      "bufferView": 2,
      "byteOffset": 20640,
      "componentType": 5126,
      "count": 1944,
      "max": [
        0.5419780015945435,
        0.20522896945476532,
        1.3929795026779175
      ],
      "min": [
        -0.5419780015945435,
        -0.15539103746414185,
        -0.00047706940677016973
      ],
      "type": "VEC3"
    },
    {
      "bufferView": 2,
      "byteOffset": 43968,
      "componentType": 5126,
      "count": 1944,
      "max": [
        0.999626874923706,
        0.9999998807907104,
        1.0
      ],
      "min": [
        -0.999626874923706,
        -0.9999993443489075,
        -1.000000238418579
      ],
      "type": "VEC3"
    },
    {
      "bufferView": 1,
      "byteOffset": 6880,
      "componentType": 5126,
      "count": 1944,
      "max": [
        0.9958999752998352,
        0.9994699954986572
      ],
      "min": [
        0.0006300000241026282,
        0.0032700300216674805
      ],
      "type": "VEC2"
    },
    {
      "bufferView": 0,
      "byteOffset": 15504,
      "componentType": 5125,
      "count": 7089,
      "type": "SCALAR"
    },
    {
      "bufferView": 2,
      "byteOffset": 67296,
      "componentType": 5126,
      "count": 117,
      "max": [
        0.07433905452489853,
        -0.016390090808272362,
        1.2834595441818237
      ],
      "min": [
        -0.0743388906121254,
        -0.09192313253879547,
        1.2018495798110962
      ],
      "type": "VEC3"
    },
    {
      "bufferView": 2,
      "byteOffset": 68700,
      "componentType": 5126,
      "count": 117,
      "max": [
        0.9896144270896912,
        -0.020905543118715286,
        0.7034350037574768
      ],
      "min": [
        -0.9893134236335754,
        -0.9990513324737549,
        -0.6119703650474548
      ],
      "type": "VEC3"
    },
    {
      "bufferView": 1,
      "byteOffset": 22432,
      "componentType": 5126,
      "count": 117,
      "max": [
        0.9998400211334229,
        0.9972699880599976
      ],
      "min": [
        0.0010899900225922465,
        0.00037002601311542094
      ],
      "type": "VEC2"
    },
    {
      "bufferView": 0,
      "byteOffset": 43860,
      "componentType": 5125,
      "count": 582,
      "type": "SCALAR"
    },
    {
      "bufferView": 2,
      "byteOffset": 70104,
      "componentType": 5126,
      "count": 31,
      "max": [
        0.021893035620450974,
        -0.06533806025981903,
        1.1955195665359497
      ],
      "min": [
        -0.021892882883548737,
        -0.09022212773561478,
        1.1538097858428955
      ],
      "type": "VEC3"
    },
    {
      "bufferView": 2,
      "byteOffset": 70476,
      "componentType": 5126,
      "count": 31,
      "max": [
        0.5246341228485107,
        -0.6243882179260254,
        -0.05652105435729027
      ],
      "min": [
        -0.5246341228485107,
        -0.9630524516105652,
        -0.6825575232505798
      ],
      "type": "VEC3"
    },
    {
      "bufferView": 1,
      "byteOffset": 23368,
      "componentType": 5126,
      "count": 31,
      "max": [
        0.9999600052833557,
        1.0013200044631958
      ],
      "min": [
        5.999999848427251e-05,
        0.002589999930933118
      ],
      "type": "VEC2"
    },
    {
      "bufferView": 0,
      "byteOffset": 46188,
      "componentType": 5125,
      "count": 132,
      "type": "SCALAR"
    },
    {
      "bufferView": 2,
      "byteOffset": 70848,
      "componentType": 5126,
      "count": 164,
      "max": [
        0.08516104519367218,
        0.005980842746794224,
        1.326269507408142
      ],
      "min": [
        -0.08516089618206024,
        -0.09529411792755127,
        1.1506797075271606
      ],
      "type": "VEC3"
    },
    {
      "bufferView": 2,
      "byteOffset": 72816,
      "componentType": 5126,
      "count": 164,
      "max": [
        0.9896144270896912,
        0.9728098511695862,
        0.9083956480026245
      ],
      "min": [
        -0.9893134236335754,
        -0.9990513324737549,
        -0.9936178922653198
      ],
      "type": "VEC3"
    },
    {
      "bufferView": 1,
      "byteOffset": 23616,
      "componentType": 5126,
      "count": 164,
      "max": [
        0.9935200214385986,
        0.9941800236701965
      ],
      "min": [
        0.006019948981702328,
        0.008620022796094418
      ],
      "type": "VEC2"
    },
    {
      "bufferView": 0,
      "byteOffset": 46716,
      "componentType": 5125,
      "count": 678,
      "type": "SCALAR"
    },
    {
      "bufferView": 2,
      "byteOffset": 74784,
      "componentType": 5126,
      "count": 162,
      "max": [
        0.5932549834251404,
        0.03337877616286278,
        1.1017199754714966
      ],
      "min": [
        0.487436980009079,
        -0.03329716995358467,
        1.0362299680709839
      ],
      "type": "VEC3"
    },
    {
      "bufferView": 2,
      "byteOffset": 76728,
      "componentType": 5126,
      "count": 162,
      "max": [
        0.9421402812004089,
        0.9659333229064941,
        0.9989126324653625
      ],
      "min": [
        -0.9989189505577087,
        -0.9696703553199768,
        -0.9633182287216187
      ],
      "type": "VEC3"
    },
    {
      "bufferView": 1,
      "byteOffset": 24928,
      "componentType": 5126,
      "count": 162,
      "max": [
        0.21759000420570374,
        0.49487999081611633
      ],
      "min": [
        0.00283998204395175,
        0.2567000091075897
      ],
      "type": "VEC2"
    },
    {
      "bufferView": 0,
      "byteOffset": 49428,
      "componentType": 5125,
      "count": 600,
      "type": "SCALAR"
    },
    {
      "bufferView": 2,
      "byteOffset": 78672,
      "componentType": 5126,
      "count": 154,
      "max": [
        0.6314640045166016,
        0.03518879413604736,
        1.1015900373458862
      ],
      "min": [
        0.487436980009079,
        -0.04728411138057709,
        1.0428400039672852
      ],
      "type": "VEC3"
    },
    {
      "bufferView": 2,
      "byteOffset": 80520,
      "componentType": 5126,
      "count": 154,
      "max": [
        0.9000486135482788,
        0.9556954503059387,
        0.9993586540222168
      ],
      "min": [
        -0.9989228844642639,
        -0.9149369597434998,
        -0.9805449843406677
      ],
      "type": "VEC3"
    },
    {
      "bufferView": 1,
      "byteOffset": 26224,
      "componentType": 5126,
      "count": 154,
      "max": [
        0.21759000420570374,
        0.49487999081611633
      ],
      "min": [
        0.00283998204395175,
        0.2567000091075897
      ],
      "type": "VEC2"
    },
    {
      "bufferView": 0,
      "byteOffset": 51828,
      "componentType": 5125,
      "count": 606,
      "type": "SCALAR"
    },
    {
      "bufferView": 2,
      "byteOffset": 82368,
      "componentType": 5126,
      "count": 162,
      "max": [
        -0.48743700981140137,
        0.03337877616286278,
        1.101719856262207
      ],
      "min": [
        -0.5932549834251404,
        -0.03329716995358467,
        1.0362298488616943
      ],
      "type": "VEC3"
    },
    {
      "bufferView": 2,
      "byteOffset": 84312,
      "componentType": 5126,
      "count": 162,
      "max": [
        0.9989188313484192,
        0.9659333229064941,
        0.9989126324653625
      ],
      "min": [
        -0.9421401619911194,
        -0.9696703553199768,
        -0.9633182287216187
      ],
      "type": "VEC3"
    },
    {
      "bufferView": 1,
      "byteOffset": 27456,
      "componentType": 5126,
      "count": 162,
      "max": [
        0.21759000420570374,
        0.49487999081611633
      ],
      "min": [
        0.00283998204395175,
        0.2567000091075897
      ],
      "type": "VEC2"
    },
    {
      "bufferView": 0,
      "byteOffset": 54252,
      "componentType": 5125,
      "count": 600,
      "type": "SCALAR"
    },
    {
      "bufferView": 2,
      "byteOffset": 86256,
      "componentType": 5126,
      "count": 154,
      "max": [
        -0.48743700981140137,
        0.03518879413604736,
        1.1015899181365967
      ],
      "min": [
        -0.6314640045166016,
        -0.04728411138057709,
        1.0428398847579956
      ],
      "type": "VEC3"
    },
    {
      "bufferView": 2,
      "byteOffset": 88104,
      "componentType": 5126,
      "count": 154,
      "max": [
        0.9989227652549744,
        0.9556954503059387,
        0.9993586540222168
      ],
      "min": [
        -0.9000484943389893,
        -0.9149369597434998,
        -0.9805449843406677
      ],
      "type": "VEC3"
    },
    {
      "bufferView": 1,
      "byteOffset": 28752,
      "componentType": 5126,
      "count": 154,
      "max": [
        0.21759000420570374,
        0.49487999081611633
      ],
      "min": [
        0.00283998204395175,
        0.2567000091075897
      ],
      "type": "VEC2"
    },
    {
      "bufferView": 0,
      "byteOffset": 56652,
      "componentType": 5125,
      "count": 606,
      "type": "SCALAR"
    },
    {
      "bufferView": 3,
      "componentType": 5126,
      "count": 1,
      "max": [
        1.0,
        0.0,
        0.0,
        0.0,
        0.0,
        1.0,
        0.0,
        0.0,
        0.0,
        0.0,
        1.0,
        0.0,
        0.0,
        0.0,
        0.0,
        1.0
      ],
      "min": [
        1.0,
        0.0,
        0.0,
        0.0,
        0.0,
        1.0,
        0.0,
        0.0,
        0.0,
        0.0,
        1.0,
        0.0,
        0.0,
        0.0,
        0.0,
        1.0
      ],
      "type": "MAT4"
    }
  ],
  "asset": {
    "extras": {
      "author": "asifsaj (https://sketchfab.com/asifsaj)",
      "license": "CC-BY-4.0 (http://creativecommons.org/licenses/by/4.0/)",
      "source": "https://sketchfab.com/3d-models/illyasviel-von-einzbern-f539592bee0c4b08952bf198742f4a62",
      "title": "Illyasviel von Einzbern"
    },
    "generator": "Sketchfab-12.67.0",
    "version": "2.0"
  },
  "bufferViews": [
    {
      "buffer": 0,
      "byteLength": 59076,
      "name": "floatBufferViews",
      "target": 34963
    },
    {
      "buffer": 0,
      "byteLength": 29984,
      "byteOffset": 59076,
      "byteStride": 8,
      "name": "floatBufferViews",
      "target": 34962
    },
    {
      "buffer": 0,
      "byteLength": 89952,
      "byteOffset": 89060,
      "byteStride": 12,
      "name": "floatBufferViews",
      "target": 34962
    },
    {
      "buffer": 0,
      "byteLength": 64,
      "byteOffset": 179012,
      "name": "floatBufferViews"
    }
  ],
  "buffers": [
    {
      "byteLength": 179076,
      "uri": "scene.bin"
    }
  ],
  "images": [
    {
      "uri": "textures/tex01.png_baseColor.png"
    },
    {
      "uri": "textures/tex02.png_baseColor.png"
    },
    {
      "uri": "textures/eye00.png_baseColor.png"
    },
    {
      "uri": "textures/mouth00.png_baseColor.png"
    },
    {
      "uri": "textures/face_base.png_baseColor.png"
    }
  ],
  "materials": [
    {
      "doubleSided": true,
      "name": "tex01.png",
      "pbrMetallicRoughness": {
        "baseColorTexture": {
          "index": 0
        },
        "metallicFactor": 0.0,
        "roughnessFactor": 0.552786404500042
      }
    },
    {
      "doubleSided": true,
      "name": "tex02.png",
      "pbrMetallicRoughness": {
        "baseColorTexture": {
          "index": 1
        },
        "metallicFactor": 0.0,
        "roughnessFactor": 0.552786404500042
      }
    },
    {
      "doubleSided": true,
      "name": "eye00.png",
      "pbrMetallicRoughness": {
        "baseColorTexture": {
          "index": 2
        },
        "metallicFactor": 0.0,
        "roughnessFactor": 0.552786404500042
      }
    },
    {
      "doubleSided": true,
      "name": "mouth00.png",
      "pbrMetallicRoughness": {
        "baseColorTexture": {
          "index": 3
        },
        "metallicFactor": 0.0,
        "roughnessFactor": 0.552786404500042
      }
    },
    {
      "doubleSided": true,
      "name": "face_base.png",
      "pbrMetallicRoughness": {
        "baseColorTexture": {
          "index": 4
        },
        "metallicFactor": 0.0,
        "roughnessFactor": 0.552786404500042
      }
    },
    {
      "doubleSided": true,
      "name": "tex02.png_0",
      "pbrMetallicRoughness": {
        "baseColorTexture": {
          "index": 1
        },
        "metallicFactor": 0.0,
        "roughnessFactor": 0.552786404500042
      }
    },
    {
      "doubleSided": true,
      "name": "tex02.png_1",
      "pbrMetallicRoughness": {
        "baseColorTexture": {
          "index": 1
        },
        "metallicFactor": 0.0,
        "roughnessFactor": 0.552786404500042
      }
    },
    {
      "doubleSided": true,
      "name": "tex02.png_2",
      "pbrMetallicRoughness": {
        "baseColorTexture": {
          "index": 1
        },
        "metallicFactor": 0.0,
        "roughnessFactor": 0.552786404500042
      }
    },
    {
      "doubleSided": true,
      "name": "tex02.png_3",
      "pbrMetallicRoughness": {
        "baseColorTexture": {
          "index": 1
        },
        "metallicFactor": 0.0,
        "roughnessFactor": 0.552786404500042
      }
    }
  ],
  "meshes": [
    {
      "name": "Object_0",
      "primitives": [
        {
          "attributes": {
            "NORMAL": 1,
            "POSITION": 0,
            "TEXCOORD_0": 2
          },
          "indices": 3,
          "material": 0,
          "mode": 4
        }
      ]
    },
    {
      "name": "Object_1",
      "primitives": [
        {
          "attributes": {
            "NORMAL": 5,
            "POSITION": 4,
            "TEXCOORD_0": 6
          },
          "indices": 7,
          "material": 1,
          "mode": 4
        }
      ]
    },
    {
      "name": "Object_2",
      "primitives": [
        {
          "attributes": {
            "NORMAL": 9,
            "POSITION": 8,
            "TEXCOORD_0": 10
          },
          "indices": 11,
          "material": 2,
          "mode": 4
        }
      ]
    },
    {
      "name": "Object_3",
      "primitives": [
        {
          "attributes": {
            "NORMAL": 13,
            "POSITION": 12,
            "TEXCOORD_0": 14
          },
          "indices": 15,
          "material": 3,
          "mode": 4
        }
      ]
    },
    {
      "name": "Object_4",
      "primitives": [
        {
          "attributes": {
            "NORMAL": 17,
            "POSITION": 16,
            "TEXCOORD_0": 18
          },
          "indices": 19,
          "material": 4,
          "mode": 4
        }
      ]
    },
    {
      "name": "Object_5",
      "primitives": [
        {
          "attributes": {
            "NORMAL": 21,
            "POSITION": 20,
            "TEXCOORD_0": 22
          },
          "indices": 23,
          "material": 5,
          "mode": 4
        }
      ]
    },
    {
      "name": "Object_6",
      "primitives": [
        {
          "attributes": {
            "NORMAL": 25,
            "POSITION": 24,
            "TEXCOORD_0": 26
          },
          "indices": 27,
          "material": 6,
          "mode": 4
        }
      ]
    },
    {
      "name": "Object_7",
      "primitives": [
        {
          "attributes": {
            "NORMAL": 29,
            "POSITION": 28,
            "TEXCOORD_0": 30
          },
          "indices": 31,
          "material": 7,
          "mode": 4
        }
      ]
    },
    {
      "name": "Object_8",
      "primitives": [
        {
          "attributes": {
            "NORMAL": 33,
            "POSITION": 32,
            "TEXCOORD_0": 34
          },
          "indices": 35,
          "material": 8,
          "mode": 4
        }
      ]
    }
  ],
  "nodes": [
    {
      "children": [
        1
      ],
      "matrix": [
        1.0,
        0.0,
        0.0,
        0.0,
        0.0,
        2.220446049250313e-16,
        -1.0,
        0.0,
        0.0,
        1.0,
        2.220446049250313e-16,
        0.0,
        0.0,
        0.0,
        0.0,
        1.0
      ],
      "name": "Sketchfab_model"
    },
    {
      "children": [
        2
      ],
      "name": "Collada visual scene group"
    },
    {
      "children": [
        3
      ],
      "name": "Armature"
    },
    {
      "children": [
        4,
        5,
        6,
        7,
        8,
        9,
        10,
        11,
        12,
        13
      ],
      "name": "Object_3"
    },
    {
      "name": "_rootJoint"
    },
    {
      "mesh": 0,
      "name": "Object_5"
    },
    {
      "mesh": 1,
      "name": "Object_6"
    },
    {
      "mesh": 2,
      "name": "Object_7"
    },
    {
      "mesh": 3,
      "name": "Object_8"
    },
    {
      "mesh": 4,
      "name": "Object_9"
    },
    {
      "mesh": 5,
      "name": "Object_10"
    },
    {
      "mesh": 6,
      "name": "Object_11"
    },
    {
      "mesh": 7,
      "name": "Object_12"
    },
    {
      "mesh": 8,
      "name": "Object_13"
    }
  ],
  "samplers": [
    {
      "magFilter": 9729,
      "minFilter": 9987,
      "wrapS": 10497,
      "wrapT": 10497
    }
  ],
  "scene": 0,
  "scenes": [
    {
      "name": "Sketchfab_Scene",
      "nodes": [
        0
      ]
    }
  ],
  "skins": [
    {
      "inverseBindMatrices": 36,
      "joints": [
        4
      ],
      "skeleton": 4
    }
  ],
  "textures": [
    {
      "sampler": 0,
      "source": 0
    },
    {
      "sampler": 0,
      "source": 1
    },
    {
      "sampler": 0,
      "source": 2
    },
    {
      "sampler": 0,
      "source": 3
    },
    {
      "sampler": 0,
      "source": 4
    }
  ]
}
